<?xml version="1.0" encoding="utf-8"?>
<!-- Generator: Adobe Illustrator 16.0.3, SVG Export Plug-In . SVG Version: 6.00 Build 0)  -->
<!DOCTYPE svg PUBLIC "-//W3C//DTD SVG 1.1//EN" "http://www.w3.org/Graphics/SVG/1.1/DTD/svg11.dtd">
<svg version="1.1" id="Ebene_1" xmlns="http://www.w3.org/2000/svg" xmlns:xlink="http://www.w3.org/1999/xlink" x="0px" y="0px"
	 width="67.796px" height="35.593px" viewBox="0 0 67.796 35.593" enable-background="new 0 0 67.796 35.593" xml:space="preserve">
<g>
	<path fill="#E04356" d="M8.425,31.356V5.727h3.902v12.885L22.804,5.727h4.746l-8.314,10.037l9.176,15.592h-4.57l-7.207-12.639
		l-4.307,5.186v7.453H8.425z"/>
	<path fill="#E04356" d="M29.062,31.356l9.404-25.629h3.129l9.404,25.629h-4.148l-1.758-5.168H34.968l-1.758,5.168H29.062z
		 M36.128,22.901h7.875l-3.885-11.373L36.128,22.901z"/>
	<path fill="#E04356" d="M52.897,16.749h2.777c0.012,0.628,0.226,1.116,0.642,1.464c0.416,0.348,0.923,0.522,1.521,0.522
		c0.621,0,1.125-0.191,1.512-0.573c0.387-0.382,0.58-0.915,0.58-1.598c0-0.637-0.188-1.152-0.563-1.546s-0.92-0.59-1.635-0.59
		h-0.404v-2.549h0.404c0.656,0,1.154-0.173,1.494-0.52c0.34-0.346,0.51-0.789,0.51-1.328c0-0.605-0.188-1.072-0.563-1.402
		c-0.375-0.33-0.832-0.495-1.371-0.495c-0.563,0-1.02,0.161-1.371,0.482s-0.545,0.758-0.58,1.311h-2.742
		c0.035-0.891,0.261-1.664,0.677-2.32s0.976-1.157,1.679-1.503s1.482-0.519,2.338-0.519c1.359,0,2.479,0.403,3.357,1.209
		c0.879,0.806,1.318,1.846,1.318,3.121c0,1.491-0.598,2.547-1.793,3.171c1.336,0.716,2.004,1.898,2.004,3.546
		c0,1.474-0.46,2.617-1.38,3.43c-0.92,0.813-2.077,1.22-3.472,1.22c-0.633,0-1.251-0.091-1.854-0.272s-1.128-0.451-1.573-0.809
		s-0.803-0.823-1.072-1.397S52.921,17.545,52.897,16.749z"/>
</g>
<g>
</g>
<g>
</g>
<g>
</g>
<g>
</g>
<g>
</g>
<g>
</g>
</svg>
